# xmcd
#
# Track frame offsets: 
#        150
#        10822
#        24810
#        39765
#        55785
#        71367
#        86925
#        105760
#        125477
#        136897
#        152512
#        167097
#        179112
#        191855
#        207822
#        221690
#        244785
#
# Disc length: 3510 seconds
#
# Revision: 8
# Processed by: cddbd v1.5.2PL0 Copyright (c) Steve Scherf et al.
# Submitted via: ExactAudioCopyFreeDBPlugin 1.0
#
DISCID=de0db411
DTITLE=Various Artist - Motown Meets The Beatles
DYEAR=1995
DGENRE=Oldies
TTITLE0=The Supremes - A Hard Day's Night
TTITLE1=Four Tops - Eleanor Rigby
TTITLE2=Stevie Wonder - We Can Work It Out
TTITLE3=The Temptations - Hey Jude
TTITLE4=Marvin Gaye - Yesterday
TTITLE5=Diana Ross - The Long And Winding Road
TTITLE6=The Supremes - Come Together
TTITLE7=Syreeta - She's Leaving Home
TTITLE8=The Supremes - You Can't Do That
TTITLE9=Four Tops - The Fool On The Hill
TTITLE10=Four Tops - Michelle
TTITLE11=Smokey Robinson and The Miracles - And I Love Her
TTITLE12=Martha Reeves and The Vandellas - Something
TTITLE13=Gladys Knight and The Pips - Let It Be
TTITLE14=Diana Ross - Imagine
TTITLE15=Jr. Walker - My Love
TTITLE16=Edwin Starr - My Sweet Lord
EXTD=
EXTT0=
EXTT1=
EXTT2=
EXTT3=
EXTT4=
EXTT5=
EXTT6=
EXTT7=
EXTT8=
EXTT9=
EXTT10=
EXTT11=
EXTT12=
EXTT13=
EXTT14=
EXTT15=
EXTT16=
PLAYORDER=
